<svg width="108" height="107" viewBox="0 0 108 107" fill="none" xmlns="http://www.w3.org/2000/svg">
<path d="M99.538 21.5154C99.5342 21.4773 99.5276 21.4402 99.521 21.4029C99.5187 21.3897 99.5177 21.3761 99.5149 21.3629C99.5061 21.319 99.4946 21.2758 99.4822 21.2333C99.4803 21.227 99.4792 21.2206 99.4773 21.2143C99.464 21.1709 99.4481 21.1286 99.4312 21.087C99.4289 21.0813 99.4272 21.0754 99.4249 21.07C99.4084 21.0304 99.3894 20.9921 99.3697 20.9544C99.3657 20.9467 99.3625 20.9387 99.3583 20.931C99.3395 20.896 99.3184 20.8625 99.2968 20.8292C99.2905 20.8191 99.2848 20.8087 99.2782 20.7988C99.2569 20.7672 99.2332 20.7371 99.2097 20.7071C99.2015 20.6966 99.1943 20.6858 99.1859 20.6755C99.1529 20.6359 99.1182 20.5976 99.0817 20.5614L78.7922 0.460247C78.7557 0.424022 78.7172 0.389472 78.6771 0.357016C78.6667 0.34864 78.6557 0.341521 78.6451 0.333354C78.6149 0.309902 78.5845 0.28666 78.5526 0.265511C78.5426 0.25881 78.5321 0.253366 78.5219 0.247084C78.4883 0.225935 78.4545 0.204996 78.4192 0.186151C78.4116 0.181963 78.4034 0.178822 78.3955 0.174843C78.3573 0.15537 78.3186 0.136524 78.2789 0.120192C78.2732 0.117888 78.2675 0.116213 78.2617 0.11391C78.2197 0.0971585 78.177 0.081454 78.1332 0.0682622C78.1269 0.0663777 78.1204 0.0651213 78.114 0.0634462C78.0711 0.051092 78.0276 0.0395753 77.9832 0.0307808C77.9699 0.0280587 77.9561 0.0270117 77.9428 0.0247084C77.9052 0.0182172 77.8678 0.011726 77.8293 0.00795695C77.7771 0.00272211 77.7243 0 77.6712 0H30.3288C25.7256 0 21.9804 3.71045 21.9804 8.27104V16.7515H15.1115C11.4406 16.7515 8.45401 19.7104 8.45401 23.3474V40.0988C8.45401 43.7358 11.4406 46.6947 15.1115 46.6947H21.9804V98.729C21.9804 103.29 25.7256 107 30.3288 107H91.1977C95.8009 107 99.546 103.29 99.546 98.729V21.6722C99.546 21.6197 99.5432 21.5673 99.538 21.5154ZM79.2564 5.36173L94.1342 20.1018H84.4344C81.5793 20.1018 79.2564 17.8003 79.2564 14.9716V5.36173ZM11.6243 40.0988V23.3474C11.6243 21.4423 13.1887 19.8924 15.1115 19.8924H62.454C64.3769 19.8924 65.9413 21.4423 65.9413 23.3474V40.0988C65.9413 42.0039 64.3769 43.5538 62.454 43.5538H23.5696C23.5683 43.5538 23.5668 43.5536 23.5656 43.5536C23.5643 43.5536 23.5628 43.5538 23.5615 43.5538H15.1115C13.1887 43.5538 11.6243 42.0039 11.6243 40.0988ZM91.1977 103.859H30.3288C27.4736 103.859 25.1507 101.558 25.1507 98.729V46.6947H62.454C66.125 46.6947 69.1115 43.7358 69.1115 40.0988V23.3474C69.1115 19.7104 66.125 16.7515 62.454 16.7515H25.1507V8.27104C25.1507 5.44234 27.4736 3.1409 30.3288 3.1409H76.0861V14.9716C76.0861 19.5322 79.8312 23.2427 84.4344 23.2427H96.3757V98.729C96.3757 101.558 94.0528 103.859 91.1977 103.859Z" fill="#0B0101"/>
<path d="M65.8356 68.681C65.4171 68.681 65.0092 68.8485 64.7155 69.1417C64.4196 69.4328 64.2505 69.839 64.2505 70.2515C64.2505 70.6661 64.4196 71.0702 64.7155 71.3613C65.0114 71.6544 65.4193 71.8219 65.8356 71.8219C66.252 71.8219 66.662 71.6544 66.9558 71.3613C67.2517 71.0702 67.4207 70.6661 67.4207 70.2515C67.4207 69.839 67.2517 69.4328 66.9558 69.1417C66.662 68.8485 66.2541 68.681 65.8356 68.681Z" fill="#0B0101"/>
<path d="M65.8356 80.407C65.4193 80.407 65.0092 80.5746 64.7155 80.8677C64.4196 81.1588 64.2505 81.565 64.2505 81.9775C64.2505 82.39 64.4196 82.7962 64.7155 83.0873C65.0092 83.3804 65.4193 83.5479 65.8356 83.5479C66.252 83.5479 66.662 83.3804 66.9558 83.0873C67.2517 82.7962 67.4207 82.39 67.4207 81.9775C67.4207 81.565 67.2517 81.1588 66.9558 80.8677C66.662 80.5746 66.252 80.407 65.8356 80.407Z" fill="#0B0101"/>
<path d="M23.5656 39.9941C25.4328 39.9941 27.2312 39.1942 28.4993 37.7997C29.0852 37.1552 29.033 36.1622 28.3827 35.5818C27.7321 35.0016 26.7301 35.0531 26.144 35.6974C25.4662 36.4428 24.5507 36.8532 23.5658 36.8532H21.875C19.9521 36.8532 18.3877 35.3033 18.3877 33.3982V30.0479C18.3877 28.1429 19.9521 26.593 21.875 26.593H23.5658C24.5507 26.593 25.4664 27.0034 26.144 27.7488C26.7299 28.3933 27.7323 28.445 28.3827 27.8644C29.0332 27.284 29.0854 26.2908 28.4993 25.6465C27.2312 24.2519 25.4331 23.4521 23.5656 23.4521H21.8748C18.2038 23.4521 15.2172 26.411 15.2172 30.0479V33.3982C15.2172 37.0352 18.2038 39.9941 21.8748 39.9941H23.5656Z" fill="#0B0101"/>
<path d="M33.7104 33.2935H37.1977V36.7485C37.1977 37.6158 37.9074 38.319 38.7828 38.319C39.6582 38.319 40.3679 37.6158 40.3679 36.7485V33.2935H43.8552C44.7306 33.2935 45.4403 32.5904 45.4403 31.7231C45.4403 30.8558 44.7306 30.1526 43.8552 30.1526H40.3679V26.6976C40.3679 25.8303 39.6582 25.1272 38.7828 25.1272C37.9074 25.1272 37.1977 25.8303 37.1977 26.6976V30.1526H33.7104C32.835 30.1526 32.1252 30.8558 32.1252 31.7231C32.1252 32.5904 32.835 33.2935 33.7104 33.2935Z" fill="#0B0101"/>
<path d="M50.6184 33.2935H54.1057V36.7485C54.1057 37.6158 54.8154 38.319 55.6908 38.319C56.5662 38.319 57.2759 37.6158 57.2759 36.7485V33.2935H60.7632C61.6386 33.2935 62.3483 32.5904 62.3483 31.7231C62.3483 30.8558 61.6386 30.1526 60.7632 30.1526H57.2759V26.6976C57.2759 25.8303 56.5662 25.1272 55.6908 25.1272C54.8154 25.1272 54.1057 25.8303 54.1057 26.6976V30.1526H50.6184C49.743 30.1526 49.0333 30.8558 49.0333 31.7231C49.0333 32.5904 49.743 33.2935 50.6184 33.2935Z" fill="#0B0101"/>
<path d="M52.3092 65.1213H54C55.5025 65.1213 56.9289 65.5927 58.1253 66.4847C58.8249 67.0063 59.8189 66.8671 60.3449 66.1742C60.8714 65.4811 60.7311 64.4965 60.0315 63.9751C58.2813 62.6702 56.1955 61.9804 53.9998 61.9804H52.309C45.841 61.9804 40.579 67.1937 40.579 73.6018V78.6272C40.579 85.0353 45.841 90.2485 52.309 90.2485H53.9998C56.1925 90.2485 58.2758 89.5605 60.0248 88.2589C60.7247 87.7379 60.8657 86.7536 60.3401 86.06C59.8142 85.3665 58.8205 85.2267 58.1207 85.7476C56.9253 86.6373 55.5004 87.1076 54 87.1076H52.3092C47.5893 87.1076 43.7495 83.3034 43.7495 78.6272V73.6018C43.7495 68.9256 47.5893 65.1213 52.3092 65.1213Z" fill="#0B0101"/>
<path d="M70.721 59.7039C70.4441 58.881 69.5465 58.4362 68.7159 58.7105C67.8853 58.9848 67.4366 59.8743 67.7133 60.6971L77.8581 90.8497C78.0796 91.5078 78.698 91.9239 79.3616 91.9239C79.5277 91.9239 79.6968 91.8977 79.8632 91.8428C80.6938 91.5685 81.1425 90.679 80.8658 89.8563L70.721 59.7039Z" fill="#0B0101"/>
</svg>
