<svg width="139" height="101" viewBox="0 0 139 101" fill="none" xmlns="http://www.w3.org/2000/svg">
<path d="M62.9472 8.12768L66.2235 10.5082L62.9472 8.12768ZM11.1856 45.7387L7.90932 43.358L11.1856 45.7387ZM11.1856 55.261L14.4618 52.8804L11.1856 55.261ZM62.9473 92.8722L59.6709 95.2524L62.9473 92.8722ZM76.0523 92.8722L72.7759 90.4913L76.0523 92.8722ZM127.814 55.261L131.09 57.6416L127.814 55.261ZM127.814 45.7386L124.537 48.1192L127.814 45.7386ZM76.0523 8.12768L79.3285 5.74707L76.0523 8.12768ZM59.6709 5.74707L7.90932 43.358L14.4618 48.1192L66.2235 10.5082L59.6709 5.74707ZM7.90932 57.6416L59.6709 95.2524L66.2235 90.4913L14.4618 52.8804L7.90932 57.6416ZM79.3285 95.2524L131.09 57.6416L124.537 52.8804L72.7759 90.4913L79.3285 95.2524ZM131.09 43.358L79.3285 5.74707L72.7759 10.5082L124.537 48.1192L131.09 43.358ZM131.09 57.6416C136.518 53.6973 136.518 47.3023 131.09 43.358L124.537 48.1192C126.347 49.434 126.347 51.5656 124.537 52.8804L131.09 57.6416ZM59.6709 95.2524C65.0993 99.1968 73.9003 99.1968 79.3285 95.2524L72.7759 90.4913C70.9665 91.8063 68.0329 91.8063 66.2235 90.4913L59.6709 95.2524ZM7.90932 43.358C2.48102 47.3023 2.48104 53.6973 7.90932 57.6416L14.4618 52.8804C12.6524 51.5656 12.6524 49.434 14.4618 48.1192L7.90932 43.358ZM66.2235 10.5082C68.0329 9.1935 70.9665 9.1935 72.7759 10.5082L79.3285 5.74707C73.9002 1.80277 65.0993 1.80278 59.6709 5.74707L66.2235 10.5082ZM47.6902 19.2137L56.9568 25.947L63.5093 21.1859L54.2426 14.4526L47.6902 19.2137ZM69.4997 33.6665C66.9408 33.6665 64.8664 32.1591 64.8664 30.2998H55.5997C55.5997 35.8779 61.8229 40.3998 69.4997 40.3998V33.6665ZM74.133 30.2998C74.133 32.1591 72.0586 33.6665 69.4997 33.6665V40.3998C77.1765 40.3998 83.3997 35.8779 83.3997 30.2998H74.133ZM69.4997 26.9331C72.0586 26.9331 74.133 28.4405 74.133 30.2998H83.3997C83.3997 24.7217 77.1765 20.1998 69.4997 20.1998V26.9331ZM69.4997 20.1998C61.8229 20.1998 55.5997 24.7217 55.5997 30.2998H64.8664C64.8664 28.4405 66.9408 26.9331 69.4997 26.9331V20.1998ZM75.4901 39.4137L89.3901 49.5137L95.9424 44.7526L82.0426 34.6526L75.4901 39.4137ZM97.3 53.8665C94.7405 53.8665 92.6664 52.3591 92.6664 50.4998H83.3997C83.3997 56.0779 89.6229 60.5998 97.3 60.5998V53.8665ZM101.933 50.4998C101.933 52.3591 99.8585 53.8665 97.3 53.8665V60.5998C104.977 60.5998 111.2 56.0779 111.2 50.4998H101.933ZM97.3 47.1331C99.8585 47.1331 101.933 48.6405 101.933 50.4998H111.2C111.2 44.9217 104.977 40.3998 97.3 40.3998V47.1331ZM97.3 40.3998C89.6229 40.3998 83.3997 44.9217 83.3997 50.4998H92.6664C92.6664 48.6405 94.7405 47.1331 97.3 47.1331V40.3998ZM64.8664 37.0331V63.9665H74.133V37.0331H64.8664ZM69.4997 74.0667C66.9408 74.0667 64.8664 72.5591 64.8664 70.7H55.5997C55.5997 76.2779 61.8229 80.8 69.4997 80.8V74.0667ZM74.133 70.7C74.133 72.5591 72.0586 74.0667 69.4997 74.0667V80.8C77.1765 80.8 83.3997 76.2779 83.3997 70.7H74.133ZM69.4997 67.3331C72.0586 67.3331 74.133 68.8403 74.133 70.7H83.3997C83.3997 65.1217 77.1765 60.5998 69.4997 60.5998V67.3331ZM69.4997 60.5998C61.8229 60.5998 55.5997 65.1217 55.5997 70.7H64.8664C64.8664 68.8403 66.9408 67.3331 69.4997 67.3331V60.5998Z" fill="#A6A6A6"/>
</svg>
