<svg width="122" height="104" viewBox="0 0 122 104" fill="none" xmlns="http://www.w3.org/2000/svg">
<g clip-path="url(#clip0_10_107)">
<path d="M44.2301 80.431C44.2301 80.431 39.5636 82.745 47.5495 83.525C50.4724 83.8933 53.8478 84.1057 57.2739 84.1057C62.7843 84.1057 68.1421 83.564 73.2813 82.5327L72.8086 82.6107C74.7098 83.5987 76.921 84.539 79.2238 85.3147L79.5237 85.4013C55.6422 94.1287 25.4726 84.8943 44.2352 80.4267L44.2301 80.431Z" fill="#A6A6A6"/>
<path d="M41.3123 69.043C41.3123 69.043 36.0815 72.345 44.0674 73.047C47.5597 73.4197 51.6009 73.6363 55.7032 73.6363C63.1299 73.6363 70.3635 72.9343 77.3175 71.6083L76.6618 71.7123C78.0597 72.8303 79.7321 73.7187 81.5824 74.295L81.6841 74.321C52.8108 81.5187 20.6434 74.8887 41.3123 69.043Z" fill="#A6A6A6"/>
<path d="M65.9106 49.725C71.797 55.5013 64.3652 60.697 64.3652 60.697C64.3652 60.697 79.3051 54.1103 72.4477 45.8857C66.0376 38.207 61.1221 34.3893 87.7282 21.2377C87.7282 21.2377 45.9636 30.1297 65.9106 49.725Z" fill="#A6A6A6"/>
<path d="M97.4983 88.855C97.4983 88.855 100.945 91.2817 93.7011 93.1537C79.9151 96.7157 36.3255 97.7903 24.2119 93.2967C19.8606 91.6803 28.0244 89.44 30.5864 88.972C31.7657 88.7163 33.123 88.569 34.5209 88.569H34.8106H34.7954C29.9561 85.6613 3.50747 94.2803 21.3754 96.7417C70.0686 103.476 110.141 93.7083 97.5136 88.855H97.4983Z" fill="#A6A6A6"/>
<path d="M46.4718 57.2433C46.4718 57.2433 24.2983 61.7327 38.6181 63.362C42.4763 63.635 46.9751 63.7867 51.5094 63.7867C57.2993 63.7867 63.0181 63.5353 68.6504 63.0457L67.9438 63.0977C77.1193 62.439 86.3353 61.0177 86.3353 61.0177C84.1749 61.8237 82.3449 62.673 80.6115 63.6393L80.7589 63.5613C58.2398 68.6097 14.7468 66.261 27.267 61.0957C32.7875 58.656 39.3247 57.226 46.2482 57.226H46.482H46.4718V57.2433Z" fill="#A6A6A6"/>
<path d="M86.2438 76.2017C109.129 66.0617 98.5505 56.3203 91.1594 57.629C90.1478 57.7893 89.2684 57.9973 88.4195 58.2617L88.5364 58.2313C89.0193 57.6507 89.6852 57.2043 90.463 56.953L90.4935 56.9443C105.103 52.5677 116.347 69.862 85.7761 76.7043C85.9642 76.5613 86.1167 76.3923 86.2285 76.206L86.2336 76.1973L86.2438 76.2017Z" fill="#A6A6A6"/>
<path d="M72.4477 -1.62516e-07C72.4477 -1.62516e-07 85.1255 10.8073 60.4205 27.43C40.6159 40.7637 55.9014 48.3643 60.4205 57.0527C48.861 48.1607 40.3769 40.3347 46.0652 33.046C54.4222 22.3513 77.5666 17.1687 72.4477 -0.0043335V-1.62516e-07Z" fill="#A6A6A6"/>
<path d="M48.7238 103.675C70.6838 104.875 104.437 103.008 105.25 94.1503C105.25 94.1503 103.715 97.5087 87.0928 100.178C77.9123 101.591 67.3441 102.397 56.5521 102.397C47.7122 102.397 39.0248 101.855 30.5204 100.811L31.4913 100.91C31.4913 100.91 34.3024 102.895 48.7391 103.684L48.7238 103.675Z" fill="#A6A6A6"/>
</g>
<defs>
<clipPath id="clip0_10_107">
<rect width="122" height="104" fill="white"/>
</clipPath>
</defs>
</svg>
