<svg width="128" height="128" viewBox="0 0 128 128" fill="none" xmlns="http://www.w3.org/2000/svg">
<path d="M15.1562 24.1875C11.0628 24.1875 7.75 27.5003 7.75 31.5938V44.7188V55.9375V96.4375C7.75 100.531 11.0628 103.812 15.1562 103.812H112.844C116.937 103.812 120.25 100.531 120.25 96.4375V44.7188C120.25 40.6253 116.937 37.3689 112.844 37.3438H53.4062V31.5938C53.4062 27.5003 50.1247 24.1875 46.0312 24.1875H15.1562ZM63.7188 46.5312C65.7451 46.5218 67.8388 46.6923 69.875 47.0312C73.0917 47.5674 75.8125 49.9751 75.8125 53.1875V64.4688C75.8125 67.7786 73.1707 70.5 69.875 70.5H58.0312C54.0114 70.5 50.625 73.9626 50.625 77.875V83.2812H46.5625C43.1176 83.2812 41.0926 80.7592 40.25 77.25C39.1134 72.5356 39.1617 69.7338 40.25 65.2188C41.1935 61.2797 44.2113 59.2188 47.6562 59.2188H52.125H63.9688V57.7188H52.125V53.1875C52.125 49.7669 53.0152 47.9174 58.0312 47.0312C59.734 46.73 61.6924 46.5406 63.7188 46.5312ZM57.3125 50.1875C56.0837 50.1875 55.0625 51.188 55.0625 52.4375C55.0625 53.6826 56.0837 54.6875 57.3125 54.6875C58.5369 54.6875 59.5312 53.6826 59.5312 52.4375C59.5312 51.188 58.5369 50.1875 57.3125 50.1875ZM77.2812 59.2188H81.75C85.1993 59.2188 86.8049 61.7893 87.6562 65.2188C88.8411 69.9819 88.8938 73.537 87.6562 77.25C86.4582 80.8567 85.1949 83.2812 81.75 83.2812H75.8125H63.9688V84.7812H75.8125V89.3125C75.8125 92.7331 72.8592 94.4485 69.875 95.3125C65.3856 96.6152 61.7834 96.4158 58.0312 95.3125C54.8979 94.3909 52.125 92.5248 52.125 89.3125V78C52.125 74.7522 54.7882 72 58.0312 72H69.875C73.8202 72 77.2812 68.5495 77.2812 64.4688V59.2188ZM70.625 87.7812C69.4006 87.7812 68.4062 88.7862 68.4062 90.0312C68.4062 91.2808 69.4006 92.3125 70.625 92.3125C71.8538 92.3125 72.8438 91.2808 72.8438 90.0312C72.8438 88.7862 71.8538 87.7812 70.625 87.7812Z" fill="#A6A6A6"/>
</svg>
