<svg width="185" height="201" viewBox="0 0 185 201" fill="none" xmlns="http://www.w3.org/2000/svg">
<path d="M30.6638 104.036C30.6638 103.44 30.3747 102.887 29.9007 102.592L17.2282 94.671C17.0142 94.5328 16.7714 94.4637 16.5286 94.4512C16.5055 94.4512 16.413 94.4512 16.3957 94.4512C16.1528 94.4637 15.9158 94.5328 15.6961 94.671L3.0294 102.592C2.55534 102.887 2.2605 103.44 2.2605 104.036L2.2894 125.367C2.2894 125.663 2.43394 125.939 2.67097 126.084C2.908 126.234 3.19706 126.234 3.43409 126.084L10.9613 121.398C11.4353 121.09 11.7244 120.55 11.7244 119.953V109.985C11.7244 109.394 12.0135 108.841 12.4875 108.546L15.6961 106.543C15.9332 106.392 16.1933 106.323 16.465 106.323C16.7252 106.323 16.9911 106.398 17.2282 106.543L20.431 108.546C20.905 108.841 21.1941 109.394 21.1941 109.985V119.953C21.1941 120.55 21.4889 121.09 21.963 121.398L29.4902 126.084C29.7272 126.234 30.0221 126.234 30.2533 126.084C30.4846 125.939 30.6349 125.663 30.6349 125.367L30.658 104.036H30.6638ZM98.316 74.7092C98.0789 74.5647 97.7899 74.571 97.5586 74.7217C97.3274 74.8725 97.1828 75.1426 97.1828 75.4378V96.5617C97.1828 96.7689 97.0788 96.9637 96.9169 97.0642C96.755 97.1647 96.5469 97.1709 96.3792 97.0642L93.2053 95.0793C92.7313 94.7841 92.1474 94.7841 91.6733 95.0793L79.0008 103.025C78.5267 103.32 78.2319 103.873 78.2319 104.463V120.361C78.2319 120.958 78.521 121.505 78.995 121.8L91.6675 129.752C92.1416 130.047 92.7255 130.047 93.1996 129.752L105.878 121.8C106.352 121.498 106.641 120.952 106.641 120.361V80.7329C106.641 80.1299 106.34 79.5772 105.855 79.2819L98.3102 74.7092H98.316ZM97.1424 115.142C97.1424 115.292 97.073 115.431 96.9516 115.5L92.5983 118.226C92.4827 118.301 92.3324 118.301 92.2168 118.226L87.8635 115.5C87.7421 115.424 87.6727 115.286 87.6727 115.142V109.683C87.6727 109.532 87.7478 109.394 87.8635 109.325L92.2168 106.593C92.3324 106.517 92.4827 106.517 92.5983 106.593L96.9516 109.325C97.0672 109.401 97.1424 109.539 97.1424 109.683V115.142ZM143.664 109.539C144.132 109.243 144.427 108.697 144.427 108.1V104.25C144.427 103.653 144.138 103.113 143.664 102.811L131.073 94.8657C130.598 94.5642 130.015 94.5642 129.54 94.8657L116.868 102.811C116.394 103.107 116.105 103.659 116.105 104.25V120.141C116.105 120.738 116.4 121.291 116.88 121.586L129.471 129.381C129.934 129.67 130.506 129.67 130.974 129.387L138.588 124.79C138.825 124.645 138.975 124.369 138.981 124.067C138.987 123.766 138.837 123.489 138.6 123.339L125.846 115.387C125.609 115.242 125.465 114.966 125.465 114.664V109.683C125.465 109.388 125.609 109.112 125.846 108.961L129.818 106.48C130.055 106.335 130.344 106.335 130.581 106.48L134.553 108.961C134.79 109.112 134.934 109.382 134.934 109.683V113.603C134.934 113.898 135.079 114.174 135.316 114.325C135.553 114.476 135.848 114.469 136.085 114.325L143.67 109.532L143.664 109.539ZM53.7136 94.7841C54.1877 94.4888 54.7716 94.4888 55.2457 94.7841L67.9182 102.73C68.3922 103.025 68.6813 103.572 68.6813 104.168V120.072C68.6813 120.669 68.3864 121.216 67.9182 121.511L55.2457 129.463C54.7716 129.758 54.1877 129.758 53.7136 129.463L41.0411 121.511C40.5671 121.216 40.278 120.663 40.278 120.072V104.168C40.278 103.572 40.5671 103.025 41.0411 102.73L53.7136 94.7841ZM168.269 129.689C167.835 129.689 167.396 129.563 167.015 129.325L163.025 126.762C162.43 126.398 162.725 126.272 162.916 126.197C163.708 125.895 163.87 125.826 164.719 125.305C164.806 125.248 164.928 125.273 165.02 125.33L168.084 127.308C168.194 127.377 168.35 127.377 168.454 127.308L180.404 119.815C180.514 119.746 180.583 119.608 180.583 119.463V104.476C180.583 104.332 180.514 104.193 180.398 104.118L168.454 96.6307C168.344 96.5617 168.194 96.5617 168.084 96.6307L156.14 104.118C156.024 104.187 155.949 104.332 155.949 104.476V119.463C155.949 119.608 156.024 119.739 156.134 119.809L159.406 121.863C161.181 122.83 162.268 121.693 162.268 120.55V105.757C162.268 105.55 162.424 105.387 162.615 105.387H164.13C164.32 105.387 164.477 105.55 164.477 105.757V120.55C164.477 123.125 163.187 124.601 160.938 124.601C160.25 124.601 159.701 124.601 158.187 123.791L155.053 121.831C154.278 121.347 153.799 120.437 153.799 119.463V104.476C153.799 103.502 154.278 102.592 155.053 102.108L167.003 94.6082C167.76 94.1434 168.766 94.1434 169.512 94.6082L181.462 102.108C182.237 102.592 182.716 103.502 182.716 104.476V119.463C182.716 120.437 182.237 121.341 181.462 121.831L169.512 129.325C169.13 129.563 168.697 129.689 168.252 129.689H168.269ZM171.963 119.369C166.731 119.369 165.639 116.762 165.639 114.57C165.639 114.363 165.789 114.199 165.985 114.199H167.529C167.703 114.199 167.847 114.338 167.87 114.52C168.101 116.228 168.795 117.095 171.963 117.095C174.478 117.095 175.553 116.473 175.553 115.029C175.553 114.193 175.253 113.571 171.339 113.157C168.073 112.805 166.049 112.02 166.049 109.181C166.049 106.561 168.084 104.997 171.489 104.997C175.316 104.997 177.213 106.442 177.45 109.539C177.461 109.645 177.427 109.746 177.357 109.828C177.288 109.909 177.201 109.947 177.103 109.947H175.553C175.392 109.947 175.253 109.821 175.218 109.652C174.848 107.855 173.94 107.277 171.489 107.277C168.743 107.277 168.419 108.32 168.419 109.099C168.419 110.047 168.795 110.318 172.507 110.852C176.178 111.379 177.924 112.127 177.924 114.928C177.924 117.755 175.756 119.375 171.969 119.375L171.963 119.369ZM130.113 108.798C130.205 108.741 130.315 108.741 130.408 108.798L132.842 110.324C132.934 110.38 132.992 110.487 132.992 110.6V113.653C132.992 113.766 132.934 113.873 132.842 113.929L130.408 115.456C130.315 115.512 130.205 115.512 130.113 115.456L127.685 113.929C127.592 113.873 127.54 113.766 127.54 113.653V110.6C127.54 110.487 127.598 110.38 127.685 110.324L130.113 108.798Z" fill="#0F0101"/>
</svg>
