<svg width="126" height="111" viewBox="0 0 126 111" fill="none" xmlns="http://www.w3.org/2000/svg">
<g clip-path="url(#clip0_10_47)">
<path d="M63.4631 81.0363C58.8403 81.0363 56.1726 85.0332 56.1726 89.9673C56.1268 94.9812 58.884 98.8211 63.4198 98.8211C67.9991 98.8211 70.6676 95.0207 70.6676 89.8516C70.6673 85.0332 68.0883 81.0363 63.4631 81.0363Z" fill="#A6A6A6"/>
<path d="M108.682 26.5996C108.674 26.0906 108.491 25.5878 108.094 25.1904L83.7994 0.744432C83.7946 0.73758 83.7852 0.735364 83.7802 0.729116C83.6354 0.586638 83.4691 0.469149 83.2904 0.365566C83.2374 0.335337 83.1818 0.308131 83.1262 0.280522C82.9718 0.206764 82.8101 0.145501 82.6389 0.100762C82.5955 0.0890739 82.552 0.0725489 82.5063 0.0620696C82.323 0.0229738 82.1325 0 81.9417 0H22.2352C19.5112 0 17.2941 1.95338 17.2941 4.35313V106.647C17.2941 109.048 19.5112 111 22.2352 111H103.764C106.489 111 108.706 109.048 108.706 106.647V26.8435C108.706 26.7617 108.691 26.6815 108.682 26.5996ZM33.7148 103.521C30.2893 103.521 26.911 102.737 25.2221 101.913L26.5997 96.9791C28.4213 97.8017 31.2243 98.6244 34.1128 98.6244C37.2269 98.6244 38.8707 97.4872 38.8707 95.7635C38.8707 94.1173 37.4501 93.179 33.8481 92.044C28.869 90.5158 25.6215 88.0852 25.6215 84.2476C25.6215 79.7427 29.892 76.2952 36.9611 76.2952C40.3412 76.2952 42.8312 76.9222 44.6087 77.6279L43.0959 82.4452C41.8963 81.9371 39.7617 81.1943 36.8279 81.1943C33.8916 81.1943 32.4712 82.3676 32.4712 83.7395C32.4712 85.4239 34.1595 86.1679 38.0275 87.4603C43.318 89.1839 45.8108 91.6133 45.8108 95.3351C45.8094 99.7593 41.9395 103.521 33.7148 103.521ZM76.0018 107.671C71.7338 106.575 68.1773 105.44 64.1748 103.95C63.5089 103.716 62.7972 103.598 62.0853 103.56C55.3273 103.169 49.0141 98.7803 49.0141 90.1617C49.0141 82.2497 54.7049 76.2952 63.6413 76.2952C72.8024 76.2952 77.8256 82.4059 77.8256 89.6134C77.8256 95.6071 74.6697 99.8377 70.7104 101.403V101.562C73.0243 102.15 75.6035 102.62 77.9583 103.048L76.0018 107.671ZM100.995 103.129H82.2748V76.7279H89.0785V98.1143H100.995V103.129ZM22.2352 73.9096V4.35313H79.4711V26.6246C79.4711 27.8259 80.5762 28.8011 81.9417 28.8011H103.764L103.767 73.9096H22.2352Z" fill="#A6A6A6"/>
<path d="M76.4311 34.4952C76.5398 34.2316 76.6169 33.9618 76.6169 33.6764C76.6169 30.1727 68.0229 28.2826 59.9349 28.2826C51.855 28.2826 43.2633 30.1727 43.2633 33.6764C43.2633 33.9618 43.3388 34.2328 43.4486 34.4974L43.4056 34.5649C43.0359 35.1558 42.8531 35.7519 42.8531 36.3385V40.6739C42.8531 41.3414 43.0915 41.9822 43.5143 42.588L43.4589 42.6709C43.0558 43.2867 42.8534 43.9104 42.8534 44.5265V48.8609C42.8534 49.5074 43.0782 50.1277 43.4781 50.7165L43.4589 50.7435C43.0558 51.3584 42.8534 51.9833 42.8534 52.598V56.9328C42.8534 60.7863 50.3569 63.8033 59.9352 63.8033C69.5238 63.8033 77.0273 60.7863 77.0273 56.9328V52.598C77.0273 51.9821 76.8246 51.3562 76.4167 50.7423L76.4 50.7185C76.7967 50.1287 77.0273 49.5086 77.0273 48.8609V44.5265C77.0273 43.9096 76.8246 43.2837 76.4167 42.6688L76.3639 42.589C76.7862 41.9822 77.0273 41.3424 77.0273 40.6729V36.3375C77.0273 35.7509 76.8415 35.1532 76.4748 34.5621L76.4311 34.4952ZM75.1961 56.9326C75.1961 59.4216 68.9327 62.1909 59.9352 62.1909C50.9461 62.1909 44.6816 59.4216 44.6816 56.9326V52.8555C47.4869 55.119 53.2582 56.5628 59.9352 56.5628C66.6213 56.5628 72.3924 55.118 75.1961 52.8533V56.9326ZM75.1961 48.8607C75.1961 51.3475 68.9327 54.1191 59.9352 54.1191C50.9461 54.1191 44.6816 51.3475 44.6816 48.8607V44.783C47.4869 47.0455 53.2582 48.4907 59.9352 48.4907C66.6213 48.4907 72.3924 47.0453 75.1961 44.7808V48.8607ZM75.1961 40.6727C75.1961 43.1595 68.9327 45.9311 59.9352 45.9311C50.9461 45.9311 44.6816 43.1606 44.6816 40.6727V37.0654C47.423 39.1121 53.7798 40.1734 59.9352 40.1734C66.0988 40.1734 72.4528 39.1121 75.1961 37.0654V40.6727Z" fill="#A6A6A6"/>
</g>
<defs>
<clipPath id="clip0_10_47">
<rect width="126" height="111" fill="white"/>
</clipPath>
</defs>
</svg>
