<svg width="148" height="48" viewBox="0 0 148 48" fill="none" xmlns="http://www.w3.org/2000/svg">
<path d="M0.403412 0.454529H14.4943L23.5852 19.3636H23.9489L33.0398 0.454529H47.1307L30.0398 32.3636V47H17.4943V32.3636L0.403412 0.454529Z" fill="#CFD0D2"/>
<path d="M59.375 47.6363C55.5871 47.6363 52.3447 46.8863 49.6477 45.3863C46.9508 43.8712 44.8826 41.7651 43.4432 39.0682C42.0038 36.356 41.2841 33.2121 41.2841 29.6363C41.2841 26.0606 42.0038 22.9242 43.4432 20.2273C44.8826 17.5151 46.9508 15.4091 49.6477 13.9091C52.3447 12.3939 55.5871 11.6363 59.375 11.6363C63.1629 11.6363 66.4053 12.3939 69.1023 13.9091C71.7992 15.4091 73.8674 17.5151 75.3068 20.2273C76.7462 22.9242 77.4659 26.0606 77.4659 29.6363C77.4659 33.2121 76.7462 36.356 75.3068 39.0682C73.8674 41.7651 71.7992 43.8712 69.1023 45.3863C66.4053 46.8863 63.1629 47.6363 59.375 47.6363ZM59.4659 38.3636C60.5265 38.3636 61.4432 38.0076 62.2159 37.2954C62.9886 36.5833 63.5871 35.5682 64.0114 34.25C64.4356 32.9318 64.6477 31.3636 64.6477 29.5454C64.6477 27.7121 64.4356 26.1439 64.0114 24.8409C63.5871 23.5227 62.9886 22.5076 62.2159 21.7954C61.4432 21.0833 60.5265 20.7273 59.4659 20.7273C58.3447 20.7273 57.3826 21.0833 56.5795 21.7954C55.7765 22.5076 55.1629 23.5227 54.7386 24.8409C54.3144 26.1439 54.1023 27.7121 54.1023 29.5454C54.1023 31.3636 54.3144 32.9318 54.7386 34.25C55.1629 35.5682 55.7765 36.5833 56.5795 37.2954C57.3826 38.0076 58.3447 38.3636 59.4659 38.3636Z" fill="#CFD0D2"/>
<path d="M105.193 31.7273V12.0909H117.739V47H105.83V40.3636H105.466C104.708 42.5909 103.383 44.3333 101.489 45.5909C99.5947 46.8333 97.3447 47.4545 94.7386 47.4545C92.2992 47.4545 90.1629 46.8939 88.3295 45.7727C86.5114 44.6515 85.0947 43.106 84.0795 41.1363C83.0795 39.1666 82.572 36.9091 82.5568 34.3636V12.0909H95.1023V31.7273C95.1174 33.4545 95.5568 34.8106 96.4205 35.7954C97.2992 36.7803 98.5265 37.2727 100.102 37.2727C101.148 37.2727 102.049 37.053 102.807 36.6136C103.58 36.1591 104.17 35.5227 104.58 34.7045C105.004 33.8712 105.208 32.8788 105.193 31.7273Z" fill="#CFD0D2"/>
<path d="M124.119 47V12.0909H136.301V18.7273H136.665C137.301 16.2727 138.309 14.4773 139.688 13.3409C141.081 12.2045 142.71 11.6363 144.574 11.6363C145.119 11.6363 145.657 11.6818 146.188 11.7727C146.733 11.8485 147.256 11.9621 147.756 12.1136V22.8182C147.134 22.606 146.369 22.447 145.46 22.3409C144.551 22.2348 143.771 22.1818 143.119 22.1818C141.892 22.1818 140.786 22.4621 139.801 23.0227C138.831 23.5682 138.066 24.3409 137.506 25.3409C136.945 26.3257 136.665 27.4848 136.665 28.8182V47H124.119Z" fill="#CFD0D2"/>
</svg>
